<svg xmlns="http://www.w3.org/2000/svg" xmlns:xlink="http://www.w3.org/1999/xlink" width="500" zoomAndPan="magnify" viewBox="0 0 375 374.999991" height="500" preserveAspectRatio="xMidYMid meet" version="1.0"><defs><g/></defs><rect x="-37.5" width="450" fill="#ffffff" y="-37.499999" height="449.999989" fill-opacity="1"/><rect x="-37.5" width="450" fill="#ffffff" y="-37.499999" height="449.999989" fill-opacity="1"/><rect x="-37.5" width="450" fill="#2b2b2b" y="-37.499999" height="449.999989" fill-opacity="1"/><g fill="#f4f4f4" fill-opacity="1"><g transform="translate(165.928543, 281.684353)"><g><path d="M 10.015625 0 L 50.070312 0 C 97.78125 0 114.277344 -23.167969 113.882812 -45.160156 C 113.6875 -64.402344 99.550781 -80.308594 67.542969 -81.878906 C 89.929688 -86 98.566406 -98.175781 98.566406 -111.527344 C 98.566406 -127.429688 86.199219 -137.445312 55.960938 -137.445312 L 10.015625 -137.445312 L 10.015625 -134.890625 C 15.90625 -133.125 17.867188 -128.609375 17.867188 -112.507812 L 17.867188 -24.9375 C 17.867188 -8.835938 15.90625 -4.320312 10.015625 -2.550781 Z M 33.96875 -20.027344 L 33.96875 -79.324219 L 53.996094 -79.324219 C 83.449219 -79.324219 96.015625 -62.832031 96.015625 -40.25 C 96.015625 -18.457031 83.839844 -2.945312 51.835938 -2.945312 L 44.179688 -2.945312 C 35.734375 -2.945312 33.96875 -5.890625 33.96875 -20.027344 Z M 33.96875 -82.269531 L 33.96875 -134.5 L 48.890625 -134.5 C 69.113281 -134.5 80.699219 -124.289062 80.699219 -107.992188 C 80.699219 -93.660156 71.667969 -82.269531 52.230469 -82.269531 Z M 33.96875 -82.269531 "/></g></g></g><g fill="#f4f4f4" fill-opacity="1"><g transform="translate(80.730468, 227.623927)"><g><path d="M 84.234375 1.964844 C 106.226562 1.964844 124.878906 -3.535156 134.105469 -8.640625 L 137.25 -34.164062 L 135.089844 -34.359375 C 127.429688 -13.15625 110.9375 -1.964844 89.730469 -1.964844 C 48.890625 -1.964844 26.507812 -37.304688 26.703125 -74.21875 C 26.703125 -114.277344 50.855469 -135.089844 82.074219 -135.089844 C 105.441406 -135.089844 124.09375 -123.113281 131.75 -105.242188 L 133.714844 -105.636719 L 132.929688 -129 C 125.269531 -133.910156 105.636719 -138.820312 88.75 -138.820312 C 42.609375 -138.820312 10.210938 -107.796875 10.210938 -65.972656 C 10.210938 -23.167969 39.074219 1.964844 84.234375 1.964844 Z M 84.234375 1.964844 "/></g></g></g><path fill="#2b2b2b" d="M 72.355469 199.410156 L 302.53125 199.410156 L 302.53125 228.511719 L 72.355469 228.511719 L 72.355469 199.410156 " fill-opacity="1" fill-rule="nonzero"/><g fill="#f4f4f4" fill-opacity="1"><g transform="translate(82.064186, 219.96006)"><g><path d="M 8.6875 0.203125 C 10.957031 0.203125 12.878906 -0.363281 13.832031 -0.890625 L 14.15625 -3.523438 L 13.933594 -3.542969 C 13.140625 -1.355469 11.441406 -0.203125 9.253906 -0.203125 C 5.042969 -0.203125 2.734375 -3.847656 2.753906 -7.65625 C 2.753906 -11.785156 5.246094 -13.933594 8.464844 -13.933594 C 10.875 -13.933594 12.796875 -12.695312 13.585938 -10.855469 L 13.789062 -10.894531 L 13.710938 -13.304688 C 12.917969 -13.808594 10.894531 -14.316406 9.152344 -14.316406 C 4.394531 -14.316406 1.054688 -11.117188 1.054688 -6.804688 C 1.054688 -2.390625 4.03125 0.203125 8.6875 0.203125 Z M 8.6875 0.203125 "/></g></g></g><g fill="#f4f4f4" fill-opacity="1"><g transform="translate(100.249737, 219.96006)"><g><path d="M 8.261719 0.203125 C 11.664062 0.203125 15.429688 -2.023438 15.429688 -7.027344 C 15.429688 -11.988281 11.683594 -14.335938 8.261719 -14.335938 C 3.96875 -14.335938 1.054688 -11.257812 1.054688 -7.109375 C 1.054688 -2.085938 4.820312 0.203125 8.261719 0.203125 Z M 2.671875 -8.28125 C 2.550781 -11.582031 4.355469 -13.871094 7.433594 -13.871094 C 11.054688 -13.871094 13.710938 -9.921875 13.851562 -5.691406 C 13.953125 -2.652344 12.351562 -0.304688 9.113281 -0.304688 C 5.488281 -0.304688 2.816406 -4.210938 2.671875 -8.28125 Z M 2.671875 -8.28125 "/></g></g></g><g fill="#f4f4f4" fill-opacity="1"><g transform="translate(119.893287, 219.96006)"><g><path d="M 7.308594 0.203125 C 10.125 0.203125 12.351562 -1.335938 12.351562 -5.40625 L 12.351562 -11.601562 C 12.351562 -13.265625 12.554688 -13.730469 13.164062 -13.910156 L 13.164062 -14.175781 L 10.652344 -14.175781 L 10.652344 -13.910156 C 11.542969 -13.667969 12.027344 -13.101562 12.027344 -10.792969 L 12.027344 -5.347656 C 12.027344 -1.378906 9.699219 -0.222656 7.957031 -0.222656 C 5.324219 -0.222656 3.238281 -1.578125 3.238281 -5.347656 L 3.238281 -11.601562 C 3.238281 -13.265625 3.441406 -13.730469 4.050781 -13.910156 L 4.050781 -14.175781 L 0.769531 -14.175781 L 0.769531 -13.910156 C 1.398438 -13.730469 1.578125 -13.265625 1.578125 -11.601562 L 1.578125 -5.222656 C 1.578125 -1.152344 4.414062 0.203125 7.308594 0.203125 Z M 7.308594 0.203125 "/></g></g></g><g fill="#f4f4f4" fill-opacity="1"><g transform="translate(136.823337, 219.96006)"><g><path d="M 11.339844 0.140625 C 11.746094 0.140625 12.273438 0.101562 12.574219 0 L 12.574219 -0.242188 C 12.472656 -0.222656 12.371094 -0.222656 12.25 -0.222656 C 11.5625 -0.222656 11.15625 -0.890625 10.1875 -3.320312 C 9.214844 -5.8125 8.828125 -7.046875 6.339844 -7.371094 C 8.972656 -7.675781 10.347656 -9.113281 10.347656 -11.015625 C 10.347656 -12.816406 9.132812 -14.175781 5.023438 -14.175781 L 1.03125 -14.175781 L 1.03125 -13.910156 C 1.660156 -13.730469 1.84375 -13.265625 1.84375 -11.601562 L 1.84375 -2.570312 C 1.84375 -0.910156 1.660156 -0.445312 1.03125 -0.261719 L 1.03125 0 L 4.3125 0 L 4.3125 -0.261719 C 3.683594 -0.445312 3.503906 -0.910156 3.503906 -2.570312 L 3.503906 -7.308594 L 4.800781 -7.308594 C 7.230469 -7.308594 7.390625 -5.894531 8.566406 -3.097656 C 9.457031 -0.992188 9.78125 0.140625 11.339844 0.140625 Z M 3.503906 -7.613281 L 3.503906 -13.832031 C 3.828125 -13.851562 4.152344 -13.871094 4.453125 -13.871094 C 7.453125 -13.871094 8.625 -12.351562 8.625 -10.550781 C 8.625 -8.828125 7.53125 -7.613281 5.203125 -7.613281 Z M 3.503906 -7.613281 "/></g></g></g><g fill="#f4f4f4" fill-opacity="1"><g transform="translate(152.396651, 219.96006)"><g><path d="M 1.03125 0 L 4.3125 0 L 4.3125 -0.261719 C 3.683594 -0.445312 3.503906 -0.910156 3.503906 -2.570312 L 3.503906 -11.601562 C 3.503906 -13.265625 3.683594 -13.730469 4.3125 -13.910156 L 4.3125 -14.175781 L 1.03125 -14.175781 L 1.03125 -13.910156 C 1.640625 -13.730469 1.84375 -13.265625 1.84375 -11.601562 L 1.84375 -2.570312 C 1.84375 -0.910156 1.640625 -0.445312 1.03125 -0.261719 Z M 1.03125 0 "/></g></g></g><g fill="#f4f4f4" fill-opacity="1"><g transform="translate(160.92298, 219.96006)"><g><path d="M 1.03125 0 L 11.015625 0 L 11.179688 -2.691406 L 10.957031 -2.734375 C 10.226562 -0.851562 8.992188 -0.304688 7.046875 -0.304688 L 4.414062 -0.304688 C 3.828125 -0.304688 3.503906 -0.628906 3.503906 -1.214844 L 3.503906 -7.433594 L 6.09375 -7.433594 C 8.402344 -7.433594 8.992188 -6.964844 9.234375 -6.054688 L 9.476562 -6.054688 L 9.476562 -9.113281 L 9.234375 -9.113281 C 8.992188 -8.203125 8.402344 -7.734375 6.09375 -7.734375 L 3.503906 -7.734375 L 3.503906 -13.871094 L 6.480469 -13.871094 C 8.546875 -13.871094 9.742188 -13.265625 10.449219 -11.480469 L 10.671875 -11.542969 L 10.449219 -14.175781 L 1.03125 -14.175781 L 1.03125 -13.910156 C 1.640625 -13.730469 1.84375 -13.265625 1.84375 -11.601562 L 1.84375 -2.570312 C 1.84375 -0.910156 1.640625 -0.445312 1.03125 -0.261719 Z M 1.03125 0 "/></g></g></g><g fill="#f4f4f4" fill-opacity="1"><g transform="translate(176.030541, 219.96006)"><g><path d="M 11.339844 0.140625 C 11.746094 0.140625 12.273438 0.101562 12.574219 0 L 12.574219 -0.242188 C 12.472656 -0.222656 12.371094 -0.222656 12.25 -0.222656 C 11.5625 -0.222656 11.15625 -0.890625 10.1875 -3.320312 C 9.214844 -5.8125 8.828125 -7.046875 6.339844 -7.371094 C 8.972656 -7.675781 10.347656 -9.113281 10.347656 -11.015625 C 10.347656 -12.816406 9.132812 -14.175781 5.023438 -14.175781 L 1.03125 -14.175781 L 1.03125 -13.910156 C 1.660156 -13.730469 1.84375 -13.265625 1.84375 -11.601562 L 1.84375 -2.570312 C 1.84375 -0.910156 1.660156 -0.445312 1.03125 -0.261719 L 1.03125 0 L 4.3125 0 L 4.3125 -0.261719 C 3.683594 -0.445312 3.503906 -0.910156 3.503906 -2.570312 L 3.503906 -7.308594 L 4.800781 -7.308594 C 7.230469 -7.308594 7.390625 -5.894531 8.566406 -3.097656 C 9.457031 -0.992188 9.78125 0.140625 11.339844 0.140625 Z M 3.503906 -7.613281 L 3.503906 -13.832031 C 3.828125 -13.851562 4.152344 -13.871094 4.453125 -13.871094 C 7.453125 -13.871094 8.625 -12.351562 8.625 -10.550781 C 8.625 -8.828125 7.53125 -7.613281 5.203125 -7.613281 Z M 3.503906 -7.613281 "/></g></g></g><g fill="#f4f4f4" fill-opacity="1"><g transform="translate(191.603855, 219.96006)"><g/></g></g><g fill="#f4f4f4" fill-opacity="1"><g transform="translate(199.036678, 219.96006)"><g><path d="M 1.03125 0 L 5.164062 0 C 10.085938 0 11.785156 -2.390625 11.746094 -4.65625 C 11.726562 -6.640625 10.265625 -8.28125 6.964844 -8.445312 C 9.273438 -8.871094 10.164062 -10.125 10.164062 -11.503906 C 10.164062 -13.140625 8.890625 -14.175781 5.769531 -14.175781 L 1.03125 -14.175781 L 1.03125 -13.910156 C 1.640625 -13.730469 1.84375 -13.265625 1.84375 -11.601562 L 1.84375 -2.570312 C 1.84375 -0.910156 1.640625 -0.445312 1.03125 -0.261719 Z M 3.503906 -2.066406 L 3.503906 -8.179688 L 5.570312 -8.179688 C 8.605469 -8.179688 9.902344 -6.480469 9.902344 -4.152344 C 9.902344 -1.902344 8.648438 -0.304688 5.347656 -0.304688 L 4.554688 -0.304688 C 3.683594 -0.304688 3.503906 -0.609375 3.503906 -2.066406 Z M 3.503906 -8.484375 L 3.503906 -13.871094 L 5.042969 -13.871094 C 7.128906 -13.871094 8.324219 -12.816406 8.324219 -11.136719 C 8.324219 -9.660156 7.390625 -8.484375 5.386719 -8.484375 Z M 3.503906 -8.484375 "/></g></g></g><g fill="#f4f4f4" fill-opacity="1"><g transform="translate(214.609992, 219.96006)"><g><path d="M -0.34375 0 L 1.945312 0 L 1.945312 -0.261719 C 1.253906 -0.40625 1.175781 -1.074219 1.699219 -2.390625 L 2.894531 -5.347656 L 8.605469 -5.347656 L 9.839844 -2.371094 C 10.488281 -0.851562 10.652344 -0.445312 10.023438 -0.261719 L 10.023438 0 L 13.164062 0 L 13.164062 -0.261719 C 12.738281 -0.445312 12.25 -0.851562 11.625 -2.371094 L 6.640625 -14.335938 L 5.125 -13.648438 L 5.304688 -13.222656 C 5.46875 -12.898438 5.488281 -12.636719 5.347656 -12.273438 L 1.355469 -2.390625 C 0.730469 -0.851562 0.222656 -0.445312 -0.34375 -0.261719 Z M 3.015625 -5.648438 L 5.710938 -12.3125 L 8.484375 -5.648438 Z M 3.015625 -5.648438 "/></g></g></g><g fill="#f4f4f4" fill-opacity="1"><g transform="translate(230.770548, 219.96006)"><g><path d="M 11.726562 0.160156 L 11.988281 0.160156 L 11.988281 -11.601562 C 11.988281 -13.265625 12.171875 -13.730469 12.796875 -13.910156 L 12.796875 -14.175781 L 10.246094 -14.175781 L 10.246094 -13.910156 C 11.15625 -13.667969 11.644531 -13.101562 11.644531 -10.792969 L 11.644531 -2.714844 L 2.792969 -14.175781 L 0.808594 -14.175781 L 0.808594 -13.910156 C 1.621094 -13.730469 1.863281 -13.265625 1.863281 -11.601562 L 1.863281 -2.570312 C 1.863281 -0.910156 1.660156 -0.445312 1.054688 -0.261719 L 1.054688 0 L 3.585938 0 L 3.585938 -0.261719 C 2.671875 -0.507812 2.1875 -1.074219 2.1875 -3.382812 L 2.1875 -12.25 Z M 11.726562 0.160156 "/></g></g></g><g fill="#f4f4f4" fill-opacity="1"><g transform="translate(247.558858, 219.96006)"><g><path d="M 8.503906 0.203125 C 10.550781 0.203125 12.898438 -0.851562 14.074219 -2.492188 L 14.074219 -6.296875 L 11.421875 -6.296875 L 11.421875 -6.054688 C 12.292969 -5.832031 12.453125 -5.347656 12.453125 -4.089844 L 12.472656 -2.023438 C 11.96875 -1.011719 10.652344 -0.203125 9.132812 -0.203125 C 5.042969 -0.203125 2.652344 -4.394531 2.691406 -8.222656 C 2.734375 -11.949219 4.921875 -13.953125 7.835938 -13.953125 C 10.207031 -13.953125 12.070312 -12.574219 12.816406 -10.832031 L 13.019531 -10.875 L 12.941406 -13.265625 C 12.148438 -13.789062 10.226562 -14.316406 8.425781 -14.316406 C 4.089844 -14.316406 1.054688 -11.054688 1.054688 -6.984375 C 1.054688 -2.632812 3.988281 0.203125 8.503906 0.203125 Z M 8.503906 0.203125 "/></g></g></g><g fill="#f4f4f4" fill-opacity="1"><g transform="translate(265.764667, 219.96006)"><g><path d="M 1.03125 0 L 10.449219 0 L 10.589844 -2.289062 L 10.367188 -2.328125 C 9.660156 -0.808594 8.769531 -0.324219 6.824219 -0.324219 L 4.414062 -0.324219 C 3.828125 -0.324219 3.503906 -0.648438 3.503906 -1.234375 L 3.503906 -11.601562 C 3.503906 -13.265625 3.683594 -13.730469 4.3125 -13.910156 L 4.3125 -14.175781 L 1.03125 -14.175781 L 1.03125 -13.910156 C 1.640625 -13.730469 1.84375 -13.265625 1.84375 -11.601562 L 1.84375 -2.570312 C 1.84375 -0.910156 1.640625 -0.445312 1.03125 -0.261719 Z M 1.03125 0 "/></g></g></g><g fill="#f4f4f4" fill-opacity="1"><g transform="translate(279.940737, 219.96006)"><g><path d="M -0.34375 0 L 1.945312 0 L 1.945312 -0.261719 C 1.253906 -0.40625 1.175781 -1.074219 1.699219 -2.390625 L 2.894531 -5.347656 L 8.605469 -5.347656 L 9.839844 -2.371094 C 10.488281 -0.851562 10.652344 -0.445312 10.023438 -0.261719 L 10.023438 0 L 13.164062 0 L 13.164062 -0.261719 C 12.738281 -0.445312 12.25 -0.851562 11.625 -2.371094 L 6.640625 -14.335938 L 5.125 -13.648438 L 5.304688 -13.222656 C 5.46875 -12.898438 5.488281 -12.636719 5.347656 -12.273438 L 1.355469 -2.390625 C 0.730469 -0.851562 0.222656 -0.445312 -0.34375 -0.261719 Z M 3.015625 -5.648438 L 5.710938 -12.3125 L 8.484375 -5.648438 Z M 3.015625 -5.648438 "/></g></g></g></svg>